<?xml version="1.0" encoding="UTF-8" standalone="no"?><!DOCTYPE svg PUBLIC "-//W3C//DTD SVG 1.1//EN" "http://www.w3.org/Graphics/SVG/1.1/DTD/svg11.dtd"><svg width="100%" height="100%" viewBox="0 0 16667 2417" version="1.1" xmlns="http://www.w3.org/2000/svg" xmlns:xlink="http://www.w3.org/1999/xlink" xml:space="preserve" xmlns:serif="http://www.serif.com/" style="fill-rule:evenodd;clip-rule:evenodd;stroke-linejoin:round;stroke-miterlimit:2;"><g id="Layer1"><g><path d="M1064.78,1398.43l555.508,0c118.149,0 176.187,85.774 176.187,166.912c0,83.455 -60.11,159.956 -176.187,159.956l-1169.05,-0c-74.621,171.547 -87.057,206.321 -201.061,382.504l1374.26,0c385.539,0 570.017,-273.548 570.017,-542.46c0,-275.867 -194.842,-547.098 -570.017,-547.098l-555.508,0c-116.077,0 -176.188,-78.819 -176.188,-162.274c0,-81.138 58.039,-164.593 176.188,-164.593l978.357,-0l111.931,-382.505l-1094.43,0c-381.394,0 -576.236,271.231 -576.236,547.098c0,271.23 188.624,542.46 576.236,542.46Z" style="fill:#fff;fill-rule:nonzero;"/></g><g><rect x="2386.83" y="536.609" width="307.319" height="1348.67" style="fill:#fff;fill-rule:nonzero;"/><path d="M2943.7,536.609l0,1348.67l1131.82,0l83.116,-286.595l-907.62,-0l-0,-1062.08l-307.32,-0Z" style="fill:#fff;fill-rule:nonzero;"/><path d="M5124.44,536.609l-525.289,516.185l0,-550.951l-307.319,86.914l-0,1296.53l307.319,-0l0,-514.439l525.289,514.439l457.135,-0l-731.415,-689.974l698.169,-658.699l-423.889,-0Z" style="fill:#fff;fill-rule:nonzero;"/><path d="M6544.05,536.609l-525.289,516.185l-0,-550.951l-307.319,86.914l-0,1296.53l307.319,-0l-0,-514.439l525.289,514.439l457.135,-0l-731.416,-689.974l698.17,-658.699l-423.889,-0Z" style="fill:#fff;fill-rule:nonzero;"/><path d="M7907.14,1426.46l630.015,-889.849l-357.396,-0l-423.786,632.629l-423.783,-632.629l-357.396,-0l625.027,882.897l0,465.776l307.319,-0l0,-458.824Z" style="fill:#fff;fill-rule:nonzero;"/><rect x="8437.63" y="1596.95" width="307.319" height="288.334" style="fill:#fff;fill-rule:nonzero;"/><g><path d="M9569.45,536.609c-367.276,-0 -545.029,328.329 -545.029,662.167c0,340.793 186.059,686.505 545.029,686.505l744.714,0l83.115,-286.595l-791.258,-0c-174.542,-0 -257.658,-187.784 -257.658,-379.045c0,-196.477 88.103,-396.437 257.658,-396.437l708.143,0l83.115,-286.595l-827.829,-0Z" style="fill:#fff;fill-rule:nonzero;"/><path d="M10548.8,536.609l0,1348.67l1131.82,0l83.115,-286.595l-907.62,-0l0,-1062.08l-307.319,-0Z" style="fill:#fff;fill-rule:nonzero;"/><path d="M12126.1,1210.95c0,-299.059 147.98,-412.078 445.601,-412.078c287.645,-0 437.293,121.713 437.293,412.078c-0,290.365 -149.648,412.074 -437.293,412.074c-297.621,0 -445.601,-113.016 -445.601,-412.074Zm1206.84,-0c-0,-490.242 -350.551,-703.889 -776.199,-703.889c-412.347,0 -754.579,227.543 -754.579,703.889c0,476.343 342.232,703.885 754.579,703.885c425.648,-0 776.199,-215.383 776.199,-703.885Z" style="fill:#fff;fill-rule:nonzero;"/><path d="M14528.3,1350.12c-0,192.946 -126.366,272.906 -382.431,272.906c-264.38,0 -390.75,-74.745 -390.75,-272.906l-0,-848.272l-307.319,86.913l-0,761.359c-0,380.599 297.353,564.717 683.104,564.717c397.396,-0 704.715,-171.959 704.715,-564.717l-0,-813.506l-307.319,-0l-0,813.506Z" style="fill:#fff;fill-rule:nonzero;"/><path d="M15043.6,1023.16l0,862.117l827.765,0c367.341,0 545.094,-328.325 545.094,-662.163c-0,-340.792 -186.059,-686.509 -545.094,-686.509l-744.705,-0l-83.06,286.595l791.184,0c174.59,0 257.732,187.788 257.732,379.05c0,196.477 -88.13,396.432 -257.732,396.432l-483.865,-0l0,-662.459l-307.319,86.937Z" style="fill:#fff;fill-rule:nonzero;"/></g></g></g></svg>